<svg width="203" height="76" viewBox="0 0 203 76" fill="none" xmlns="http://www.w3.org/2000/svg">
<circle cx="37" cy="39" r="37" fill="#E24135"/>
<path fill-rule="evenodd" clip-rule="evenodd" d="M13 43.4532H32.522V63.0196H41.3259V43.4532H61.0196V34.5664H41.3259V15H32.522V34.5664H13V43.4532Z" fill="white"/>
<path fill-rule="evenodd" clip-rule="evenodd" d="M22.5122 44.3779C21.8427 45.0005 21.1532 45.6232 20.3878 46.1139L19.1439 46.8873C17.6319 47.8494 16.3112 49.227 15.565 50.8495L17.441 53.7929C19.7183 49.3778 25.2685 48.4342 27.2399 44.3779H22.5122ZM29.0962 44.3779C27.0294 47.7553 24.9046 48.9438 21.7468 51.1327C20.3882 52.0763 19.0676 53.4349 18.3401 54.944L20.828 57.4723C21.8614 55.8305 23.2967 54.3966 24.9046 53.3026L27.3354 51.6423C29.0579 50.4911 30.4744 48.6233 31.5841 46.9062V44.3779H29.0962ZM31.5841 49.0194C30.321 51.1705 28.3304 52.9064 26.2061 54.2269C24.5027 55.2835 23.0099 56.6232 22.1103 58.4344L24.9046 60.3968C27.029 57.7551 30.4931 56.5476 31.5841 54.2269V49.0194ZM42.2255 48.6233V53.4345C42.8183 54.0571 43.3736 54.6987 43.8326 55.4154L45.1532 57.453C46.0144 58.7739 47.5264 59.8116 48.9238 60.5098L51.8898 58.5852C50.1677 57.7173 48.8854 56.472 47.6982 54.9625C45.192 51.7553 45.6322 51.378 42.2255 48.6233ZM42.2255 44.3779V46.944C45.1153 48.6422 46.4738 50.397 48.3497 53.114C49.632 54.9633 51.1244 56.548 53.0575 57.7555L55.5653 55.2272C51.4121 52.9442 50.9714 49.0383 46.5505 45.6043L45.2299 44.5666L45.0002 44.3779H42.2255ZM47.1246 44.3779C48.9046 45.5854 50.3595 46.9814 51.5651 48.7552L52.7327 50.4533C53.7465 51.925 55.0297 53.1514 56.6171 54.0004L58.493 51.1323C57.1153 50.2458 56.0047 48.7737 55.1435 47.4154C54.3781 46.2454 53.5168 45.3396 52.5218 44.3775L47.1246 44.3779ZM21.4021 33.6228H26.5504C25.1151 32.6796 23.6031 31.5096 22.7035 30.0568L21.2295 27.7171C20.5024 26.5475 19.5266 25.5098 18.3777 24.7737L17.6123 24.2834L17.3826 24.1326L15.4688 27.0953C17.8424 28.3776 18.321 31.3398 21.4021 33.6228ZM28.7519 33.6228H31.5841V31.3398L31.048 30.9626C29.842 30.0946 28.4259 29.2073 27.5646 27.981L26.3207 26.2454L25.0576 24.4906L24.0242 23L22.4546 21.4901L21.134 20.5847L20.8851 20.3961L18.3585 22.8677C19.8897 23.9625 21.4208 25.1699 22.3971 26.8113L23.4497 28.5477C24.7324 30.642 26.7226 32.2641 28.7519 33.6228ZM31.5841 29.5094V24.8111C28.8282 22.3202 29.7661 20.7922 25.3832 17.7926L24.9429 17.5094L22.0149 19.4903C23.5077 20.4528 25.0005 21.6039 25.996 23.0945L27.4696 25.2833C28.2158 26.3773 29.077 27.6793 30.168 28.4725L31.2973 29.2833L31.5841 29.5094ZM42.2255 28.6792L42.474 28.3591C43.5649 27 44.6942 25.7173 46.1299 24.6796C47.4506 23.7171 49.2498 23.0567 50.3019 21.7547L51.4312 20.3591C51.6422 20.0759 51.8523 19.8117 52.0436 19.5289L49.0964 17.6039L48.7904 17.9434L47.9104 18.9622L46.839 19.8113L45.6518 20.5658C44.4598 21.3083 43.3834 22.2172 42.456 23.2642L42.2264 23.5285V28.6792H42.2255ZM42.2255 33.6228H44.7326L44.9435 33.34C46.0916 31.7364 47.3355 30.0009 49.0388 28.925L51.1248 27.5852C53.0391 26.3589 54.5511 24.962 55.7371 23.0563L53.3067 20.528L53.077 20.849C50.8568 23.8108 49.1151 24.3582 46.3021 26.4148C44.6363 27.6226 43.5649 29.2829 42.2255 30.7924V33.6228ZM46.4938 33.6228H51.3545C51.8902 33.1325 52.4071 32.6229 53.0391 32.2452L55.1635 30.9437C56.6371 30.0383 57.7085 28.604 58.5318 27.1327L56.6755 24.1893C54.4936 28.1889 49.9772 29.2455 47.2976 32.6229L46.7423 33.3022L46.4938 33.6228Z" fill="white"/>
<path d="M158.771 57.756V75.516H154.667V57.756H158.771Z" fill="white"/>
<path d="M137.561 68.796C137.561 67.42 137.817 66.212 138.329 65.172C138.857 64.132 139.569 63.332 140.465 62.772C141.361 62.212 142.361 61.932 143.465 61.932C144.409 61.932 145.233 62.124 145.937 62.508C146.657 62.892 147.209 63.396 147.593 64.02V62.124H151.697V75.516H147.593V73.62C147.193 74.244 146.633 74.748 145.913 75.132C145.209 75.516 144.385 75.708 143.441 75.708C142.353 75.708 141.361 75.428 140.465 74.868C139.569 74.292 138.857 73.484 138.329 72.444C137.817 71.388 137.561 70.172 137.561 68.796ZM147.593 68.82C147.593 67.796 147.305 66.988 146.729 66.396C146.169 65.804 145.481 65.508 144.665 65.508C143.849 65.508 143.153 65.804 142.577 66.396C142.017 66.972 141.737 67.772 141.737 68.796C141.737 69.82 142.017 70.636 142.577 71.244C143.153 71.836 143.849 72.132 144.665 72.132C145.481 72.132 146.169 71.836 146.729 71.244C147.305 70.652 147.593 69.844 147.593 68.82Z" fill="white"/>
<path d="M136.091 72.036V75.516H134.003C132.515 75.516 131.355 75.156 130.523 74.436C129.691 73.7 129.275 72.508 129.275 70.86V65.532H127.643V62.124H129.275V58.86H133.379V62.124H136.067V65.532H133.379V70.908C133.379 71.308 133.475 71.596 133.667 71.772C133.859 71.948 134.179 72.036 134.627 72.036H136.091Z" fill="white"/>
<path d="M122.466 64.356C122.946 63.62 123.546 63.044 124.266 62.628C124.986 62.196 125.786 61.98 126.666 61.98V66.324H125.538C124.514 66.324 123.746 66.548 123.234 66.996C122.722 67.428 122.466 68.196 122.466 69.3V75.516H118.362V62.124H122.466V64.356Z" fill="white"/>
<path d="M109.177 75.708C107.865 75.708 106.681 75.428 105.625 74.868C104.585 74.308 103.761 73.508 103.153 72.468C102.561 71.428 102.265 70.212 102.265 68.82C102.265 67.444 102.569 66.236 103.177 65.196C103.785 64.14 104.617 63.332 105.673 62.772C106.729 62.212 107.913 61.932 109.225 61.932C110.537 61.932 111.721 62.212 112.777 62.772C113.833 63.332 114.665 64.14 115.273 65.196C115.881 66.236 116.185 67.444 116.185 68.82C116.185 70.196 115.873 71.412 115.249 72.468C114.641 73.508 113.801 74.308 112.729 74.868C111.673 75.428 110.489 75.708 109.177 75.708ZM109.177 72.156C109.961 72.156 110.625 71.868 111.169 71.292C111.729 70.716 112.009 69.892 112.009 68.82C112.009 67.748 111.737 66.924 111.193 66.348C110.665 65.772 110.009 65.484 109.225 65.484C108.425 65.484 107.761 65.772 107.233 66.348C106.705 66.908 106.441 67.732 106.441 68.82C106.441 69.892 106.697 70.716 107.209 71.292C107.737 71.868 108.393 72.156 109.177 72.156Z" fill="white"/>
<path d="M100.944 64.092C100.944 65.068 100.72 65.964 100.272 66.78C99.824 67.58 99.136 68.228 98.208 68.724C97.28 69.22 96.128 69.468 94.752 69.468H92.208V75.516H88.104V58.668H94.752C96.096 58.668 97.232 58.9 98.16 59.364C99.088 59.828 99.784 60.468 100.248 61.284C100.712 62.1 100.944 63.036 100.944 64.092ZM94.44 66.204C95.224 66.204 95.808 66.02 96.192 65.652C96.576 65.284 96.768 64.764 96.768 64.092C96.768 63.42 96.576 62.9 96.192 62.532C95.808 62.164 95.224 61.98 94.44 61.98H92.208V66.204H94.44Z" fill="white"/>
<path d="M202.701 44.036V47.516H200.613C199.125 47.516 197.965 47.156 197.133 46.436C196.301 45.7 195.885 44.508 195.885 42.86V37.532H194.253V34.124H195.885V30.86H199.989V34.124H202.677V37.532H199.989V42.908C199.989 43.308 200.085 43.596 200.277 43.772C200.469 43.948 200.789 44.036 201.237 44.036H202.701Z" fill="white"/>
<path d="M187.225 33.98C188.793 33.98 190.041 34.492 190.969 35.516C191.913 36.524 192.385 37.916 192.385 39.692V47.516H188.305V40.244C188.305 39.348 188.073 38.652 187.609 38.156C187.145 37.66 186.521 37.412 185.737 37.412C184.953 37.412 184.329 37.66 183.865 38.156C183.401 38.652 183.169 39.348 183.169 40.244V47.516H179.065V34.124H183.169V35.9C183.585 35.308 184.145 34.844 184.849 34.508C185.553 34.156 186.345 33.98 187.225 33.98Z" fill="white"/>
<path d="M161.96 40.796C161.96 39.42 162.216 38.212 162.728 37.172C163.256 36.132 163.968 35.332 164.864 34.772C165.76 34.212 166.76 33.932 167.864 33.932C168.808 33.932 169.632 34.124 170.336 34.508C171.056 34.892 171.608 35.396 171.992 36.02V34.124H176.096V47.516H171.992V45.62C171.592 46.244 171.032 46.748 170.312 47.132C169.608 47.516 168.784 47.708 167.84 47.708C166.752 47.708 165.76 47.428 164.864 46.868C163.968 46.292 163.256 45.484 162.728 44.444C162.216 43.388 161.96 42.172 161.96 40.796ZM171.992 40.82C171.992 39.796 171.704 38.988 171.128 38.396C170.568 37.804 169.88 37.508 169.064 37.508C168.248 37.508 167.552 37.804 166.976 38.396C166.416 38.972 166.136 39.772 166.136 40.796C166.136 41.82 166.416 42.636 166.976 43.244C167.552 43.836 168.248 44.132 169.064 44.132C169.88 44.132 170.568 43.836 171.128 43.244C171.704 42.652 171.992 41.844 171.992 40.82Z" fill="white"/>
<path d="M160.49 44.036V47.516H158.402C156.914 47.516 155.754 47.156 154.922 46.436C154.09 45.7 153.674 44.508 153.674 42.86V37.532H152.042V34.124H153.674V30.86H157.778V34.124H160.466V37.532H157.778V42.908C157.778 43.308 157.874 43.596 158.066 43.772C158.258 43.948 158.578 44.036 159.026 44.036H160.49Z" fill="white"/>
<path d="M145.091 47.708C143.923 47.708 142.883 47.508 141.971 47.108C141.059 46.708 140.339 46.164 139.811 45.476C139.283 44.772 138.987 43.988 138.923 43.124H142.979C143.027 43.588 143.243 43.964 143.627 44.252C144.011 44.54 144.483 44.684 145.043 44.684C145.555 44.684 145.947 44.588 146.219 44.396C146.507 44.188 146.651 43.924 146.651 43.604C146.651 43.22 146.451 42.94 146.051 42.764C145.651 42.572 145.003 42.364 144.107 42.14C143.147 41.916 142.347 41.684 141.707 41.444C141.067 41.188 140.515 40.796 140.051 40.268C139.587 39.724 139.355 38.996 139.355 38.084C139.355 37.316 139.563 36.62 139.979 35.996C140.411 35.356 141.035 34.852 141.851 34.484C142.683 34.116 143.667 33.932 144.803 33.932C146.483 33.932 147.803 34.348 148.763 35.18C149.739 36.012 150.299 37.116 150.443 38.492H146.651C146.587 38.028 146.379 37.66 146.027 37.388C145.691 37.116 145.243 36.98 144.683 36.98C144.203 36.98 143.835 37.076 143.579 37.268C143.323 37.444 143.195 37.692 143.195 38.012C143.195 38.396 143.395 38.684 143.795 38.876C144.211 39.068 144.851 39.26 145.715 39.452C146.707 39.708 147.515 39.964 148.139 40.22C148.763 40.46 149.307 40.86 149.771 41.42C150.251 41.964 150.499 42.7 150.515 43.628C150.515 44.412 150.291 45.116 149.843 45.74C149.411 46.348 148.779 46.828 147.947 47.18C147.131 47.532 146.179 47.708 145.091 47.708Z" fill="white"/>
<path d="M134.629 32.732C133.909 32.732 133.317 32.524 132.853 32.108C132.405 31.676 132.181 31.148 132.181 30.524C132.181 29.884 132.405 29.356 132.853 28.94C133.317 28.508 133.909 28.292 134.629 28.292C135.333 28.292 135.909 28.508 136.357 28.94C136.821 29.356 137.053 29.884 137.053 30.524C137.053 31.148 136.821 31.676 136.357 32.108C135.909 32.524 135.333 32.732 134.629 32.732ZM136.669 34.124V47.516H132.565V34.124H136.669Z" fill="white"/>
<path d="M124.63 47.708C123.462 47.708 122.422 47.508 121.51 47.108C120.598 46.708 119.878 46.164 119.35 45.476C118.822 44.772 118.526 43.988 118.462 43.124H122.518C122.566 43.588 122.782 43.964 123.166 44.252C123.55 44.54 124.022 44.684 124.582 44.684C125.094 44.684 125.486 44.588 125.758 44.396C126.046 44.188 126.19 43.924 126.19 43.604C126.19 43.22 125.99 42.94 125.59 42.764C125.19 42.572 124.542 42.364 123.646 42.14C122.686 41.916 121.886 41.684 121.246 41.444C120.606 41.188 120.054 40.796 119.59 40.268C119.126 39.724 118.894 38.996 118.894 38.084C118.894 37.316 119.102 36.62 119.518 35.996C119.95 35.356 120.574 34.852 121.39 34.484C122.222 34.116 123.206 33.932 124.342 33.932C126.022 33.932 127.342 34.348 128.302 35.18C129.278 36.012 129.838 37.116 129.982 38.492H126.19C126.126 38.028 125.918 37.66 125.566 37.388C125.23 37.116 124.782 36.98 124.222 36.98C123.742 36.98 123.374 37.076 123.118 37.268C122.862 37.444 122.734 37.692 122.734 38.012C122.734 38.396 122.934 38.684 123.334 38.876C123.75 39.068 124.39 39.26 125.254 39.452C126.246 39.708 127.054 39.964 127.678 40.22C128.302 40.46 128.846 40.86 129.31 41.42C129.79 41.964 130.038 42.7 130.054 43.628C130.054 44.412 129.83 45.116 129.382 45.74C128.95 46.348 128.318 46.828 127.486 47.18C126.67 47.532 125.718 47.708 124.63 47.708Z" fill="white"/>
<path d="M111.247 47.708C110.079 47.708 109.039 47.508 108.127 47.108C107.215 46.708 106.495 46.164 105.967 45.476C105.439 44.772 105.143 43.988 105.079 43.124H109.135C109.183 43.588 109.399 43.964 109.783 44.252C110.167 44.54 110.639 44.684 111.199 44.684C111.711 44.684 112.103 44.588 112.375 44.396C112.663 44.188 112.807 43.924 112.807 43.604C112.807 43.22 112.607 42.94 112.207 42.764C111.807 42.572 111.159 42.364 110.263 42.14C109.303 41.916 108.503 41.684 107.863 41.444C107.223 41.188 106.671 40.796 106.207 40.268C105.743 39.724 105.511 38.996 105.511 38.084C105.511 37.316 105.719 36.62 106.135 35.996C106.567 35.356 107.191 34.852 108.007 34.484C108.839 34.116 109.823 33.932 110.959 33.932C112.639 33.932 113.959 34.348 114.919 35.18C115.895 36.012 116.455 37.116 116.599 38.492H112.807C112.743 38.028 112.535 37.66 112.183 37.388C111.847 37.116 111.399 36.98 110.839 36.98C110.359 36.98 109.991 37.076 109.735 37.268C109.479 37.444 109.351 37.692 109.351 38.012C109.351 38.396 109.551 38.684 109.951 38.876C110.367 39.068 111.007 39.26 111.871 39.452C112.863 39.708 113.671 39.964 114.295 40.22C114.919 40.46 115.463 40.86 115.927 41.42C116.407 41.964 116.655 42.7 116.671 43.628C116.671 44.412 116.447 45.116 115.999 45.74C115.567 46.348 114.935 46.828 114.103 47.18C113.287 47.532 112.335 47.708 111.247 47.708Z" fill="white"/>
<path d="M98.592 44.54H92.304L91.296 47.516H87L93.096 30.668H97.848L103.944 47.516H99.6L98.592 44.54ZM97.536 41.372L95.448 35.204L93.384 41.372H97.536Z" fill="white"/>
<path d="M171.505 19.708C170.337 19.708 169.297 19.508 168.385 19.108C167.473 18.708 166.753 18.164 166.225 17.476C165.697 16.772 165.401 15.988 165.337 15.124H169.393C169.441 15.588 169.657 15.964 170.041 16.252C170.425 16.54 170.897 16.684 171.457 16.684C171.969 16.684 172.361 16.588 172.633 16.396C172.921 16.188 173.065 15.924 173.065 15.604C173.065 15.22 172.865 14.94 172.465 14.764C172.065 14.572 171.417 14.364 170.521 14.14C169.561 13.916 168.761 13.684 168.121 13.444C167.481 13.188 166.929 12.796 166.465 12.268C166.001 11.724 165.769 10.996 165.769 10.084C165.769 9.316 165.977 8.62 166.393 7.996C166.825 7.356 167.449 6.852 168.265 6.484C169.097 6.116 170.081 5.932 171.217 5.932C172.897 5.932 174.217 6.348 175.177 7.18C176.153 8.012 176.713 9.116 176.857 10.492H173.065C173.001 10.028 172.793 9.66 172.441 9.388C172.105 9.116 171.657 8.98 171.097 8.98C170.617 8.98 170.249 9.076 169.993 9.268C169.737 9.444 169.609 9.692 169.609 10.012C169.609 10.396 169.809 10.684 170.209 10.876C170.625 11.068 171.265 11.26 172.129 11.452C173.121 11.708 173.929 11.964 174.553 12.22C175.177 12.46 175.721 12.86 176.185 13.42C176.665 13.964 176.913 14.7 176.929 15.628C176.929 16.412 176.705 17.116 176.257 17.74C175.825 18.348 175.193 18.828 174.361 19.18C173.545 19.532 172.593 19.708 171.505 19.708Z" fill="white"/>
<path d="M148.952 12.796C148.952 11.42 149.208 10.212 149.72 9.172C150.248 8.132 150.96 7.332 151.856 6.772C152.752 6.212 153.752 5.932 154.856 5.932C155.8 5.932 156.624 6.124 157.328 6.508C158.048 6.892 158.6 7.396 158.984 8.02V6.124H163.088V19.516H158.984V17.62C158.584 18.244 158.024 18.748 157.304 19.132C156.6 19.516 155.776 19.708 154.832 19.708C153.744 19.708 152.752 19.428 151.856 18.868C150.96 18.292 150.248 17.484 149.72 16.444C149.208 15.388 148.952 14.172 148.952 12.796ZM158.984 12.82C158.984 11.796 158.696 10.988 158.12 10.396C157.56 9.804 156.872 9.508 156.056 9.508C155.24 9.508 154.544 9.804 153.968 10.396C153.408 10.972 153.128 11.772 153.128 12.796C153.128 13.82 153.408 14.636 153.968 15.244C154.544 15.836 155.24 16.132 156.056 16.132C156.872 16.132 157.56 15.836 158.12 15.244C158.696 14.652 158.984 13.844 158.984 12.82Z" fill="white"/>
<path d="M147.482 16.036V19.516H145.394C143.906 19.516 142.746 19.156 141.914 18.436C141.082 17.7 140.666 16.508 140.666 14.86V9.532H139.034V6.124H140.666V2.86H144.77V6.124H147.458V9.532H144.77V14.908C144.77 15.308 144.866 15.596 145.058 15.772C145.25 15.948 145.57 16.036 146.018 16.036H147.482Z" fill="white"/>
<path d="M135.004 4.732C134.284 4.732 133.692 4.524 133.228 4.108C132.78 3.676 132.556 3.148 132.556 2.524C132.556 1.884 132.78 1.356 133.228 0.94C133.692 0.508 134.284 0.292 135.004 0.292C135.708 0.292 136.284 0.508 136.732 0.94C137.196 1.356 137.428 1.884 137.428 2.524C137.428 3.148 137.196 3.676 136.732 4.108C136.284 4.524 135.708 4.732 135.004 4.732ZM137.044 6.124V19.516H132.94V6.124H137.044Z" fill="white"/>
<path d="M126.778 8.356C127.258 7.62 127.858 7.044 128.578 6.628C129.298 6.196 130.098 5.98 130.978 5.98V10.324H129.85C128.826 10.324 128.058 10.548 127.546 10.996C127.034 11.428 126.778 12.196 126.778 13.3V19.516H122.674V6.124H126.778V8.356Z" fill="white"/>
<path d="M105.569 12.796C105.569 11.42 105.825 10.212 106.337 9.172C106.865 8.132 107.577 7.332 108.473 6.772C109.369 6.212 110.369 5.932 111.473 5.932C112.417 5.932 113.241 6.124 113.945 6.508C114.665 6.892 115.217 7.396 115.601 8.02V6.124H119.705V19.516H115.601V17.62C115.201 18.244 114.641 18.748 113.921 19.132C113.217 19.516 112.393 19.708 111.449 19.708C110.361 19.708 109.369 19.428 108.473 18.868C107.577 18.292 106.865 17.484 106.337 16.444C105.825 15.388 105.569 14.172 105.569 12.796ZM115.601 12.82C115.601 11.796 115.313 10.988 114.737 10.396C114.177 9.804 113.489 9.508 112.673 9.508C111.857 9.508 111.161 9.804 110.585 10.396C110.025 10.972 109.745 11.772 109.745 12.796C109.745 13.82 110.025 14.636 110.585 15.244C111.161 15.836 111.857 16.132 112.673 16.132C113.489 16.132 114.177 15.836 114.737 15.244C115.313 14.652 115.601 13.844 115.601 12.82Z" fill="white"/>
<path d="M87.408 11.068C87.408 9.404 87.768 7.924 88.488 6.628C89.208 5.316 90.208 4.3 91.488 3.58C92.784 2.844 94.248 2.476 95.88 2.476C97.88 2.476 99.592 3.004 101.016 4.06C102.44 5.116 103.392 6.556 103.872 8.38H99.36C99.024 7.676 98.544 7.14 97.92 6.772C97.312 6.404 96.616 6.22 95.832 6.22C94.568 6.22 93.544 6.66 92.76 7.54C91.976 8.42 91.584 9.596 91.584 11.068C91.584 12.54 91.976 13.716 92.76 14.596C93.544 15.476 94.568 15.916 95.832 15.916C96.616 15.916 97.312 15.732 97.92 15.364C98.544 14.996 99.024 14.46 99.36 13.756H103.872C103.392 15.58 102.44 17.02 101.016 18.076C99.592 19.116 97.88 19.636 95.88 19.636C94.248 19.636 92.784 19.276 91.488 18.556C90.208 17.82 89.208 16.804 88.488 15.508C87.768 14.212 87.408 12.732 87.408 11.068Z" fill="white"/>
</svg>
